<?xml version="1.0" encoding="UTF-8"?><svg id="Calque_2" xmlns="http://www.w3.org/2000/svg" viewBox="0 0 54 54"><defs><style>.cls-1{fill:#9dc4c8;}.cls-2{fill:#c5c53f;}.cls-3{fill:#1f4437;}.cls-4{fill:#18687a;}.cls-5{fill:#702e16;}.cls-6{fill:#5e6565;}</style></defs><g id="Calque_1-2"><g><path class="cls-1" d="M11.88,38.98h0Z"/><path class="cls-1" d="M12.13,39.12h0Z"/><polygon class="cls-6" points="27 54 40.76 40.24 15.05 42.05 27 54"/><path class="cls-3" d="M11.97,38.97h.01l30.72-.67,4.41-4.41c-11.04,1.87-33.52,4.86-35.14,5.08Z"/><path class="cls-5" d="M54,27l-5.77-5.77C26.49,26.34,10.6,30.31,4.78,31.78l5.19,5.19c8.94-1.19,29.16-4.06,39.62-5.55l4.41-4.41Z"/><path class="cls-2" d="M8.03,18.97L0,27l2.31,2.31c12.41-2.75,28.31-6.04,28.31-6.04l-22.59-4.3Z"/><polygon class="cls-1" points="45.67 18.67 27 0 9.69 17.31 34.51 21.42 45.67 18.67"/><polygon class="cls-4" points="45.67 18.67 27 0 9.69 17.31 34.51 21.42 45.67 18.67"/></g></g></svg>